<svg width="24" height="24" viewBox="0 0 24 24" fill="none" xmlns="http://www.w3.org/2000/svg">
<g clip-path="url(#clip0_7_906)">
<rect width="24" height="24" fill="#B19F77"/>
<path d="M12.0034 7.08092C13.6074 7.08092 13.7973 7.08804 14.428 7.11617C15.0144 7.14205 15.3307 7.24032 15.542 7.32246C15.8211 7.43047 16.0226 7.56174 16.2313 7.77028C16.4425 7.98143 16.5712 8.18059 16.6815 8.45963C16.7637 8.67079 16.862 8.98922 16.8879 9.57318C16.916 10.2063 16.9231 10.3961 16.9231 11.9972C16.9231 13.5983 16.916 13.7903 16.8879 14.4212C16.862 15.0074 16.7637 15.3236 16.6815 15.5347C16.5734 15.8138 16.4425 16.0152 16.2335 16.2237C16.0223 16.4349 15.823 16.5635 15.5442 16.6738C15.333 16.7559 15.0141 16.8542 14.4302 16.8801C13.7969 16.9082 13.607 16.9153 12.0053 16.9153C10.4035 16.9153 10.2114 16.9082 9.58026 16.8801C8.99381 16.8542 8.67751 16.7559 8.46626 16.6738C8.18711 16.5658 7.98562 16.4349 7.77662 16.226C7.56538 16.0148 7.43668 15.8157 7.32637 15.537C7.2442 15.3258 7.14589 15.007 7.12 14.4234C7.09186 13.7903 7.08474 13.6006 7.08474 11.9994C7.08474 10.3983 7.09186 10.2063 7.12 9.57543C7.14589 8.98922 7.2442 8.67304 7.32637 8.46188C7.43443 8.18284 7.56576 7.98143 7.77437 7.77253C7.98562 7.56137 8.18485 7.43272 8.46401 7.32246C8.67525 7.24032 8.99381 7.14205 9.57801 7.11617C10.2087 7.08804 10.399 7.08092 12.003 7.08092H12.0034ZM12.0034 6.00038C10.3735 6.00038 10.1697 6.0075 9.52924 6.03563C8.89138 6.06376 8.45275 6.1669 8.07304 6.31467C7.67682 6.4692 7.34138 6.67323 7.00857 7.00853C6.67313 7.34158 6.46901 7.67651 6.31443 8.07032C6.16659 8.45251 6.06341 8.88833 6.03527 9.52593C6.00713 10.1684 6 10.3721 6 12.0013C6 13.6306 6.00713 13.8342 6.03527 14.4744C6.06341 15.112 6.16659 15.5505 6.31443 15.9301C6.46939 16.3261 6.67313 16.6614 7.00857 16.9941C7.34138 17.3268 7.67682 17.5334 8.07079 17.6857C8.45313 17.8335 8.88913 17.9366 9.52698 17.9647C10.1671 17.9929 10.3712 18 12.0011 18C13.631 18 13.8352 17.9929 14.4753 17.9647C15.1131 17.9366 15.5517 17.8335 15.9315 17.6857C16.3254 17.5334 16.6609 17.3271 16.9937 16.9941C17.3265 16.661 17.5332 16.3261 17.6856 15.9323C17.8334 15.5501 17.9366 15.1143 17.9647 14.4767C17.9929 13.8368 18 13.6328 18 12.0036C18 10.3743 17.9929 10.1707 17.9647 9.53043C17.9366 8.89283 17.8334 8.45438 17.6856 8.07482C17.5377 7.67614 17.3336 7.34121 16.9986 7.00816C16.6657 6.67548 16.3303 6.46882 15.9363 6.31655C15.554 6.16878 15.118 6.06564 14.4801 6.03751C13.8378 6.00713 13.6337 6 12.0038 6L12.0034 6.00038Z" fill="white"/>
<path d="M12.0033 8.9187C10.301 8.9187 8.91943 10.2993 8.91943 12.0013C8.91943 13.7033 10.3006 15.0839 12.0033 15.0839C13.706 15.0839 15.0872 13.7033 15.0872 12.0013C15.0872 10.2997 13.706 8.9187 12.0033 8.9187ZM12.0033 14.0007C10.8987 14.0007 10.003 13.1055 10.003 12.0013C10.003 10.8971 10.8987 10.0019 12.0033 10.0019C13.1079 10.0019 14.0035 10.8971 14.0035 12.0013C14.0035 13.1055 13.1079 14.0007 12.0033 14.0007Z" fill="white"/>
<path d="M15.9288 8.79682C15.9288 9.19439 15.6065 9.51656 15.2088 9.51656C14.8111 9.51656 14.4888 9.19439 14.4888 8.79682C14.4888 8.39926 14.8111 8.07709 15.2088 8.07709C15.6065 8.07709 15.9288 8.39926 15.9288 8.79682Z" fill="white"/>
</g>
<defs>
<clipPath id="clip0_7_906">
<rect width="24" height="24" fill="white"/>
</clipPath>
</defs>
</svg>
