<svg width="18" height="24" viewBox="0 0 18 24" fill="none" xmlns="http://www.w3.org/2000/svg">
<g clip-path="url(#clip0_7_909)">
<path d="M13.5003 8C13.5003 5.797 11.4788 4 9.00056 4C6.52234 4 4.50084 5.797 4.50084 8C4.50084 10.203 6.52234 12 9.00056 12C11.4788 12 13.5003 10.203 13.5003 8ZM18 8C18 8.953 17.8774 9.937 17.4195 10.797L11.0209 22.891C10.652 23.579 9.84314 24 8.99944 24C8.15574 24 7.34692 23.578 6.99594 22.891L0.580464 10.797C0.123742 9.938 0 8.953 0 8C0 3.578 4.025 0 8.99944 0C13.9739 0 18 3.578 18 8Z" fill="#B19F77"/>
</g>
<defs>
<clipPath id="clip0_7_909">
<rect width="18" height="24" fill="white"/>
</clipPath>
</defs>
</svg>
