<svg width="12" height="14" viewBox="0 0 12 14" fill="none" xmlns="http://www.w3.org/2000/svg">
<g clip-path="url(#clip0_7_907)">
<path d="M6.3024 0.0115103C7.05633 0 7.8045 0.00575515 8.55267 0C8.59871 0.880537 8.91524 1.77834 9.55982 2.3999C10.2044 3.03872 11.1137 3.33223 12 3.43007V5.74939C11.1713 5.72062 10.3368 5.54796 9.58284 5.19114C9.25479 5.04151 8.94977 4.85159 8.6505 4.65591C8.64475 6.33642 8.65626 8.01692 8.63899 9.69167C8.59295 10.4974 8.32822 11.2974 7.86205 11.9592C7.10812 13.0642 5.80171 13.7836 4.46076 13.8066C3.63777 13.8526 2.81479 13.6282 2.11266 13.2138C0.950118 12.529 0.132887 11.2743 0.0120292 9.92763C0.000518938 9.63987 -0.0052362 9.35211 0.00627409 9.07011C0.109867 7.97663 0.650851 6.9292 1.4911 6.21556C2.44646 5.38682 3.78165 4.98971 5.03052 5.22567C5.04203 6.07743 5.0075 6.9292 5.0075 7.78096C4.43774 7.59679 3.77014 7.64859 3.26944 7.9939C2.90687 8.22986 2.63062 8.59243 2.48674 9.00105C2.36588 9.29456 2.40042 9.61685 2.40617 9.92763C2.54429 10.8715 3.45361 11.6657 4.42047 11.5794C5.06505 11.5736 5.68085 11.1995 6.01465 10.6528C6.12399 10.4629 6.24485 10.2672 6.25061 10.0427C6.30816 9.01256 6.28514 7.98814 6.29089 6.95797C6.29665 4.63865 6.28514 2.32508 6.3024 0.0115103Z" fill="white"/>
</g>
<defs>
<clipPath id="clip0_7_907">
<rect width="12" height="13.8125" fill="white"/>
</clipPath>
</defs>
</svg>
