<svg width="28" height="26" viewBox="0 0 28 26" fill="none" xmlns="http://www.w3.org/2000/svg">
<g clip-path="url(#clip0_7_903)">
<path d="M27.999 8.38462V23.0456C27.999 24.6705 26.8741 26 25.4992 26H2.50082C1.12592 26 0.000999929 24.6705 0.000999929 23.0456V8.38462C0.469966 8.99441 1.00093 9.52975 1.57889 9.99064C4.1727 12.0776 6.79751 14.1634 9.34433 16.3615C10.6572 17.5067 12.2821 18.9094 13.985 18.9094H14.016C15.7189 18.9094 17.3438 17.5055 18.6567 16.3615C21.2035 14.1824 23.8283 12.0776 26.4371 9.99064C26.9991 9.52857 27.53 8.99323 27.999 8.38462ZM27.999 2.95559C27.999 5.02368 26.7021 6.88851 25.3272 8.01473C22.8894 10.0084 20.4365 12.0032 18.0147 14.0157C16.9988 14.8465 15.2809 16.5459 14.015 16.5459H13.984C12.7181 16.5459 11.0002 14.8477 9.98429 14.0157C7.56246 12.0032 5.10964 10.0084 2.68781 8.01473C1.57889 7.1284 0 5.04141 0 3.36094C0 1.55166 0.827941 0 2.49982 0H25.4982C26.8571 0 27.998 1.32949 27.998 2.95441L27.999 2.95559Z" fill="#B19F77"/>
</g>
<defs>
<clipPath id="clip0_7_903">
<rect width="28" height="26" fill="white"/>
</clipPath>
</defs>
</svg>
